<svg viewBox="0 0 24 24" xmlns="http://www.w3.org/2000/svg">
  <path d="M12 22.5C10.05 22.5 8.28044 22.0173 6.69128 21.0518C5.10228 20.0864 3.85586 18.7928 2.95203 17.171V20.1538H1.45203V14.6538H6.95203V16.1538H4.11153C4.83453 17.6103 5.90311 18.7821 7.31728 19.6693C8.73144 20.5564 10.2924 21 12 21C13.2244 21 14.3728 20.7737 15.4453 20.3212C16.5176 19.8686 17.4564 19.2509 18.2615 18.4683C19.0667 17.6856 19.7132 16.7613 20.201 15.6953C20.6889 14.6293 20.952 13.4808 20.9905 12.25H22.4903C22.4583 13.6705 22.1612 15.0026 21.599 16.2462C21.0369 17.4897 20.283 18.5763 19.3375 19.5058C18.392 20.4353 17.2894 21.1667 16.0298 21.7C14.7701 22.2333 13.4269 22.5 12 22.5ZM11.2923 18.8078V17.5462C10.5603 17.3756 9.95161 17.0717 9.46628 16.6345C8.98111 16.1973 8.60903 15.6077 8.35003 14.8655L9.61528 14.35C9.85378 15.0013 10.1952 15.4963 10.6395 15.8348C11.0837 16.1731 11.5872 16.3422 12.15 16.3422C12.7192 16.3422 13.2301 16.2003 13.6828 15.9163C14.1353 15.6324 14.3615 15.177 14.3615 14.55C14.3615 14.0282 14.167 13.6125 13.778 13.303C13.3889 12.9933 12.6629 12.6436 11.6 12.2537C10.5719 11.8846 9.83019 11.4712 9.37503 11.0135C8.91986 10.5558 8.69228 9.95133 8.69228 9.2C8.69228 8.55517 8.92503 7.96475 9.39053 7.42875C9.85586 6.89292 10.5064 6.55125 11.3423 6.40375V5.19225H12.7078V6.40375C13.2693 6.44742 13.7863 6.65867 14.2588 7.0375C14.7311 7.41633 15.0718 7.87175 15.2808 8.40375L14.0463 8.9C13.8744 8.5295 13.6289 8.2215 13.3095 7.976C12.9904 7.7305 12.5705 7.60775 12.05 7.60775C11.4282 7.60775 10.9407 7.75517 10.5875 8.05C10.2344 8.34483 10.0578 8.72817 10.0578 9.2C10.0578 9.67183 10.2302 10.0392 10.575 10.302C10.9199 10.5648 11.6179 10.8758 12.6693 11.2348C13.8693 11.6681 14.6757 12.1539 15.0885 12.6923C15.5014 13.2308 15.7078 13.85 15.7078 14.55C15.7078 15.027 15.6196 15.4456 15.4433 15.8057C15.2669 16.1661 15.0365 16.469 14.752 16.7145C14.4674 16.96 14.1433 17.1539 13.7798 17.2962C13.4163 17.4384 13.0423 17.5384 12.6578 17.5963V18.8078H11.2923ZM1.50978 11.75C1.55461 10.2975 1.86128 8.94783 2.42978 7.701C2.99844 6.45417 3.75869 5.36925 4.71053 4.44625C5.66253 3.52308 6.76353 2.80125 8.01353 2.28075C9.26353 1.76025 10.5924 1.5 12 1.5C13.9309 1.5 15.7004 1.98433 17.3088 2.953C18.9171 3.9215 20.1635 5.22633 21.048 6.8675V3.84625H22.548V9.34625H17.048V7.84625H19.8885C19.1847 6.41542 18.1241 5.25 16.7068 4.35C15.2894 3.45 13.7205 3 12 3C10.8014 3 9.66736 3.22308 8.59803 3.66925C7.52886 4.11542 6.58853 4.72658 5.77703 5.50275C4.96553 6.27908 4.31103 7.20025 3.81353 8.26625C3.31603 9.33225 3.04803 10.4935 3.00953 11.75H1.50978Z"/>
</svg>
